# Blender v2.79 (sub 0) OBJ File: 'post_segments.blend'
# www.blender.org
mtllib post.mtl
o arm_twoway
v 0.375000 0.875000 1.374997
v 0.375000 0.875000 0.374997
v 0.375000 0.750000 0.374997
v 0.375000 0.750000 1.374997
v 0.625000 0.875000 0.374997
v 0.625000 0.875000 1.374997
v 0.625000 0.750000 1.374997
v 0.625000 0.750000 0.374997
v 0.437500 0.431450 1.506279
v 0.437500 0.926153 0.495934
v 0.437500 0.757762 0.413483
v 0.437500 0.263059 1.423830
v 0.562500 0.926153 0.495934
v 0.562500 0.431450 1.506279
v 0.562500 0.263059 1.423830
v 0.562500 0.757762 0.413483
v 0.312500 1.000000 0.687497
v 0.312500 1.000000 0.312497
v 0.312500 0.875000 0.312497
v 0.312500 0.875000 0.687497
v 0.687500 1.000000 0.312497
v 0.687500 1.000000 0.687497
v 0.687500 0.875000 0.687497
v 0.687500 0.875000 0.312497
v 0.437500 0.395619 1.153098
v 0.562500 0.395619 1.153098
v 0.562500 0.500000 1.366278
v 0.437500 0.500000 1.366278
v 0.437500 0.500000 0.939918
v 0.562500 0.604381 1.153098
v 0.437500 0.604381 1.153098
v 0.562500 0.500000 0.939918
v 0.375000 0.125000 1.374997
v 0.375000 0.125000 0.374997
v 0.375000 0.250000 0.374997
v 0.375000 0.250000 1.374997
v 0.625000 0.125000 0.374997
v 0.625000 0.125000 1.374997
v 0.625000 0.250000 1.374997
v 0.625000 0.250000 0.374997
v 0.437500 0.568550 1.506279
v 0.437500 0.073847 0.495934
v 0.437500 0.242238 0.413483
v 0.437500 0.736941 1.423830
v 0.562500 0.073847 0.495934
v 0.562500 0.568550 1.506279
v 0.562500 0.736941 1.423830
v 0.562500 0.242238 0.413483
v 0.312500 0.000000 0.687497
v 0.312500 0.000000 0.312497
v 0.312500 0.125000 0.312497
v 0.312500 0.125000 0.687497
v 0.687500 0.000000 0.312497
v 0.687500 0.000000 0.687497
v 0.687500 0.125000 0.687497
v 0.687500 0.125000 0.312497
vt 0.062500 1.000000
vt 0.062500 0.500000
vt 0.000000 0.500000
vt 0.000000 1.000000
vt 0.062500 0.500000
vt 0.062500 0.000000
vt 0.000000 0.000000
vt 0.000000 0.500000
vt 0.187500 1.000000
vt 0.187500 0.500000
vt 0.062500 0.000000
vt 0.062500 0.500000
vt 0.187500 0.500000
vt 0.187500 0.000000
vt 0.250000 0.875000
vt 0.187500 0.875000
vt 0.187500 1.000000
vt 0.250000 1.000000
vt 0.281250 0.750000
vt 0.281250 0.672055
vt 0.187500 0.599273
vt 0.187500 0.750000
vt 0.437500 0.750000
vt 0.437500 0.384130
vt 0.343750 0.456913
vt 0.343750 0.750000
vt 0.343750 0.750000
vt 0.343750 0.672055
vt 0.437500 0.187500
vt 0.437500 0.338227
vt 0.500000 0.338227
vt 0.500000 0.187500
vt 0.312500 0.187500
vt 0.312500 0.000000
vt 0.250000 0.000000
vt 0.250000 0.187500
vt 0.312500 0.187500
vt 0.312500 0.000000
vt 0.250000 0.000000
vt 0.250000 0.187500
vt 0.500000 0.187500
vt 0.500000 0.000000
vt 0.312500 0.000000
vt 0.312500 0.187500
vt 0.500000 0.187500
vt 0.500000 0.000000
vt 0.312500 0.000000
vt 0.250000 0.000000
vt 0.250000 0.187500
vt 0.312500 0.187500
vt 0.312500 0.187500
vt 0.312500 0.000000
vt 0.250000 0.000000
vt 0.250000 0.187500
vt 0.281250 0.553370
vt 0.343750 0.553370
vt 0.343750 0.187500
vt 0.281250 0.187500
vt 0.187500 0.480587
vt 0.187500 0.187500
vt 0.500000 0.456913
vt 0.437500 0.456913
vt 0.437500 0.750000
vt 0.500000 0.750000
vt 0.343750 0.338227
vt 0.437500 0.265445
vt 0.437500 0.187500
vt 0.343750 0.187500
vt 0.062500 1.000000
vt 0.000000 1.000000
vt 0.000000 0.500000
vt 0.062500 0.500000
vt 0.062500 0.500000
vt 0.000000 0.500000
vt 0.000000 0.000000
vt 0.062500 0.000000
vt 0.187500 0.500000
vt 0.187500 1.000000
vt 0.062500 0.000000
vt 0.187500 0.000000
vt 0.187500 0.500000
vt 0.062500 0.500000
vt 0.250000 0.875000
vt 0.250000 1.000000
vt 0.187500 1.000000
vt 0.187500 0.875000
vt 0.281250 0.750000
vt 0.187500 0.750000
vt 0.187500 0.187500
vt 0.281250 0.187500
vt 0.437500 0.750000
vt 0.343750 0.750000
vt 0.343750 0.187500
vt 0.437500 0.187500
vt 0.343750 0.750000
vt 0.343750 0.187500
vt 0.437500 0.187500
vt 0.500000 0.187500
vt 0.500000 0.750000
vt 0.437500 0.750000
vt 0.312500 0.187500
vt 0.250000 0.187500
vt 0.250000 0.000000
vt 0.312500 0.000000
vt 0.312500 0.187500
vt 0.250000 0.187500
vt 0.250000 0.000000
vt 0.312500 0.000000
vt 0.500000 0.187500
vt 0.500000 0.000000
vt 0.312500 0.000000
vt 0.500000 0.000000
vt 0.500000 0.187500
vt 0.312500 0.187500
vt 0.312500 0.000000
vt 0.312500 0.187500
vt 0.250000 0.187500
vt 0.250000 0.000000
vt 0.312500 0.187500
vt 0.250000 0.187500
vt 0.250000 0.000000
vt 0.312500 0.000000
vn -1.0000 0.0000 0.0000
vn 1.0000 0.0000 -0.0000
vn 0.0000 1.0000 -0.0000
vn 0.0000 -1.0000 0.0000
vn -0.0000 -0.0000 -1.0000
vn 0.0000 0.8981 0.4398
vn 0.0000 -0.8981 -0.4398
vn 0.0000 0.0000 1.0000
vn 0.0000 -0.8981 0.4398
vn 0.0000 0.8981 -0.4398
usemtl post
f 1/1/1 2/2/1 3/3/1 4/4/1
f 5/5/2 6/6/2 7/7/2 8/8/2
f 2/2/3 1/1/3 6/9/3 5/10/3
f 4/11/4 3/12/4 8/13/4 7/14/4
f 5/15/5 8/16/5 3/17/5 2/18/5
f 9/19/1 28/20/1 25/21/1 12/22/1
f 13/23/2 30/24/2 32/25/2 16/26/2
f 14/27/6 27/28/6 28/20/6 9/19/6
f 12/29/7 25/30/7 26/31/7 15/32/7
f 17/33/1 18/34/1 19/35/1 20/36/1
f 21/37/2 22/38/2 23/39/2 24/40/2
f 22/41/3 21/42/3 18/34/3 17/33/3
f 20/43/4 19/44/4 24/45/4 23/46/4
f 21/47/5 24/48/5 19/49/5 18/50/5
f 22/51/8 17/52/8 20/53/8 23/54/8
f 31/55/6 30/56/6 13/57/6 10/58/6
f 29/59/1 31/55/1 10/58/1 11/60/1
f 32/61/7 29/62/7 11/63/7 16/64/7
f 26/65/2 27/66/2 14/67/2 15/68/2
f 33/69/1 36/70/1 35/71/1 34/72/1
f 37/73/2 40/74/2 39/75/2 38/76/2
f 34/72/4 37/77/4 38/78/4 33/69/4
f 36/79/3 39/80/3 40/81/3 35/82/3
f 37/83/5 34/84/5 35/85/5 40/86/5
f 41/87/1 44/88/1 43/89/1 42/90/1
f 45/91/2 48/92/2 47/93/2 46/94/2
f 46/95/9 41/87/9 42/90/9 45/96/9
f 44/97/10 47/98/10 48/99/10 43/100/10
f 49/101/1 52/102/1 51/103/1 50/104/1
f 53/105/2 56/106/2 55/107/2 54/108/2
f 54/109/4 49/101/4 50/104/4 53/110/4
f 52/111/3 55/112/3 56/113/3 51/114/3
f 53/115/5 50/116/5 51/117/5 56/118/5
f 54/119/8 55/120/8 52/121/8 49/122/8
