# Blender v2.79 (sub 0) OBJ File: 'post_segments.blend'
# www.blender.org
mtllib post.mtl
o post_horizontal_point_bottom
v 0.312500 0.000000 0.687497
v 0.312500 0.000000 0.312497
v 0.312500 0.125000 0.312497
v 0.312500 0.125000 0.687497
v 0.687500 0.000000 0.312497
v 0.687500 0.000000 0.687497
v 0.687500 0.125000 0.687497
v 0.687500 0.125000 0.312497
vt 0.312500 0.187500
vt 0.250000 0.187500
vt 0.250000 0.000000
vt 0.312500 0.000000
vt 0.312500 0.187500
vt 0.250000 0.187500
vt 0.250000 0.000000
vt 0.312500 0.000000
vt 0.500000 0.187500
vt 0.500000 0.000000
vt 0.312500 0.000000
vt 0.500000 0.000000
vt 0.500000 0.187500
vt 0.312500 0.187500
vt 0.312500 0.000000
vt 0.312500 0.187500
vt 0.250000 0.187500
vt 0.250000 0.000000
vt 0.312500 0.187500
vt 0.250000 0.187500
vt 0.250000 0.000000
vt 0.312500 0.000000
vn -1.0000 0.0000 0.0000
vn 1.0000 0.0000 -0.0000
vn 0.0000 -1.0000 -0.0000
vn 0.0000 1.0000 0.0000
vn -0.0000 0.0000 -1.0000
vn 0.0000 -0.0000 1.0000
usemtl post
f 1/1/1 4/2/1 3/3/1 2/4/1
f 5/5/2 8/6/2 7/7/2 6/8/2
f 6/9/3 1/1/3 2/4/3 5/10/3
f 4/11/4 7/12/4 8/13/4 3/14/4
f 5/15/5 2/16/5 3/17/5 8/18/5
f 6/19/6 7/20/6 4/21/6 1/22/6
