# Blender v2.79 (sub 0) OBJ File: 'post_segments.blend'
# www.blender.org
mtllib post.mtl
o post
v 0.625000 0.000000 0.375000
v 0.625000 1.000000 0.375000
v 0.625000 -0.000000 0.625000
v 0.625000 1.000000 0.625000
v 0.375000 0.000000 0.375000
v 0.375000 1.000000 0.375000
v 0.375000 -0.000000 0.625000
v 0.375000 1.000000 0.625000
vt 1.000000 1.000000
vt 1.000000 0.500000
vt 0.875000 0.500000
vt 0.875000 1.000000
vt 1.000000 1.000000
vt 1.000000 0.500000
vt 0.875000 0.500000
vt 0.875000 1.000000
vt 1.000000 1.000000
vt 1.000000 0.500000
vt 0.875000 0.500000
vt 0.875000 1.000000
vt 1.000000 1.000000
vt 1.000000 0.500000
vt 0.875000 0.500000
vt 0.875000 1.000000
vn 0.0000 -0.0000 1.0000
vn 1.0000 -0.0000 -0.0000
vn -1.0000 0.0000 0.0000
vn -0.0000 -0.0000 -1.0000
usemtl post
f 3/1/1 4/2/1 8/3/1 7/4/1
f 1/5/2 2/6/2 4/7/2 3/8/2
f 7/9/3 8/10/3 6/11/3 5/12/3
f 5/13/4 6/14/4 2/15/4 1/16/4
