# Blender v2.79 (sub 0) OBJ File: 'post_segments.blend'
# www.blender.org
mtllib post_arm.mtl
o post_arm
v 0.625002 0.363977 0.375000
v 0.625002 0.363977 0.125000
v 0.625002 0.488977 0.125000
v 0.625002 0.488977 0.375000
v 0.375002 0.363977 0.125000
v 0.375002 0.363977 0.375000
v 0.375002 0.488977 0.375000
v 0.375002 0.488977 0.125000
v 0.562502 0.682527 0.506282
v 0.562502 0.490142 0.113370
v 0.562502 0.658533 0.030919
v 0.562502 0.850918 0.423832
v 0.437502 0.490142 0.113370
v 0.437502 0.682527 0.506282
v 0.437502 0.850918 0.423832
v 0.437502 0.658533 0.030919
v 0.687502 0.750212 0.125000
v 0.687502 0.250212 0.125000
v 0.687502 0.250212 -0.000000
v 0.687502 0.750212 -0.000001
v 0.312502 0.250212 0.125000
v 0.312502 0.750211 0.125000
v 0.312502 0.750212 -0.000000
v 0.312502 0.250212 -0.000000
vt 0.062500 0.000000
vt 0.062500 0.125000
vt 0.000000 0.125000
vt 0.000000 0.000000
vt 0.062500 0.875000
vt 0.062500 1.000000
vt 0.000000 1.000000
vt 0.000000 0.875000
vt 0.187500 0.000000
vt 0.187500 0.125000
vt 0.062500 1.000000
vt 0.062500 0.875000
vt 0.187500 0.875000
vt 0.187500 1.000000
vt 0.281250 0.250000
vt 0.281250 0.468750
vt 0.187500 0.468750
vt 0.187500 0.250000
vt 0.437500 0.250000
vt 0.437500 0.468750
vt 0.343750 0.468750
vt 0.343750 0.250000
vt 0.343750 0.250000
vt 0.343750 0.468750
vt 0.437500 0.468750
vt 0.437500 0.250000
vt 0.500000 0.250000
vt 0.500000 0.468750
vt 0.500000 0.875000
vt 0.250000 0.875000
vt 0.250000 0.812500
vt 0.500000 0.812500
vt 0.250000 0.937500
vt 0.500000 0.937500
vt 0.500000 1.000000
vt 0.250000 1.000000
vt 0.500000 1.000000
vt 0.250000 1.000000
vt 0.250000 0.812500
vt 0.500000 0.812500
vt 0.312500 1.000000
vt 0.312500 0.812500
vt 0.500000 0.812500
vt 0.312500 1.000000
vt 0.312500 0.812500
vt 0.312500 0.812500
vt 0.312500 1.000000
vt 0.250000 1.000000
vt 0.250000 0.812500
vn 1.0000 0.0000 -0.0000
vn -1.0000 0.0000 0.0000
vn 0.0000 -1.0000 0.0000
vn -0.0000 1.0000 -0.0000
vn 0.0000 -0.8981 0.4398
vn -0.0000 0.8981 -0.4398
vn 0.0000 0.0000 1.0000
vn -0.0000 -0.0000 -1.0000
usemtl post
f 1/1/1 2/2/1 3/3/1 4/4/1
f 5/5/2 6/6/2 7/7/2 8/8/2
f 2/2/3 1/1/3 6/9/3 5/10/3
f 4/11/4 3/12/4 8/13/4 7/14/4
f 9/15/1 10/16/1 11/17/1 12/18/1
f 13/19/2 14/20/2 15/21/2 16/22/2
f 14/23/5 13/24/5 10/16/5 9/15/5
f 12/25/6 11/26/6 16/27/6 15/28/6
f 17/29/1 18/30/1 19/31/1 20/32/1
f 21/33/2 22/34/2 23/35/2 24/36/2
f 22/37/7 21/38/7 18/39/7 17/40/7
f 20/41/8 19/42/8 24/43/8 23/35/8
f 21/44/3 24/36/3 19/31/3 18/45/3
f 22/46/4 17/47/4 20/48/4 23/49/4
