# Blender v2.79 (sub 0) OBJ File: 'post_segments.blend'
# www.blender.org
mtllib post.mtl
o truss_multi_d_odd
v 0.375000 0.875000 -0.374997
v 0.375000 0.875000 0.625003
v 0.375000 0.750000 0.625003
v 0.375000 0.750000 -0.374997
v 0.625000 0.875000 0.625003
v 0.625000 0.875000 -0.374997
v 0.625000 0.750000 -0.374997
v 0.625000 0.750000 0.625003
v 0.375000 0.125000 -0.374997
v 0.375000 0.125000 0.625003
v 0.375000 0.250000 0.625003
v 0.375000 0.250000 -0.374997
v 0.625000 0.125000 0.625003
v 0.625000 0.125000 -0.374997
v 0.625000 0.250000 -0.374997
v 0.625000 0.250000 0.625003
v 0.625000 0.125000 0.624997
v 0.375000 0.125000 0.624997
v 0.625000 0.250000 0.624997
v 0.375000 0.250000 0.624997
v 0.375000 0.250000 1.000000
v 0.375000 0.125000 1.000000
v 0.625000 0.250000 1.000000
v 0.625000 0.125000 1.000000
v 0.625000 0.750000 0.624997
v 0.375000 0.750000 0.624997
v 0.625000 0.875000 0.624997
v 0.375000 0.875000 0.624997
v 0.375000 0.875000 1.000000
v 0.375000 0.750000 1.000000
v 0.625000 0.875000 1.000000
v 0.625000 0.750000 1.000000
v 0.562500 0.250000 0.062500
v 0.562500 0.750000 0.062500
v 0.437500 0.250000 0.062500
v 0.437500 0.750000 0.062500
v 0.562500 0.250000 -0.062500
v 0.562500 0.750000 -0.062500
v 0.437500 0.250000 -0.062500
v 0.437500 0.750000 -0.062500
v 0.437500 0.763649 -0.005653
v 0.437500 0.838521 0.050768
v 0.437500 0.161479 0.949232
v 0.437500 0.236351 1.005653
v 0.562500 0.763649 -0.005653
v 0.562500 0.838521 0.050768
v 0.562500 0.161479 0.949232
v 0.562500 0.236351 1.005653
v 0.437500 0.161834 0.792983
v 0.437500 0.688422 0.094177
v 0.437500 0.838166 0.207017
v 0.437500 0.311578 0.905823
v 0.562500 0.688422 0.094177
v 0.562500 0.161834 0.792983
v 0.562500 0.311578 0.905823
v 0.562500 0.838166 0.207017
vt 0.000000 1.000000
vt 0.062500 1.000000
vt 0.062500 0.500000
vt 0.000000 0.500000
vt 0.000000 0.500000
vt 0.062500 0.500000
vt 0.062500 0.000000
vt 0.000000 0.000000
vt 0.062500 0.500000
vt 0.187500 0.500000
vt 0.187500 1.000000
vt 0.062500 1.000000
vt 0.062500 0.000000
vt 0.187500 0.000000
vt 0.187500 0.500000
vt 0.000000 1.000000
vt 0.000000 0.500000
vt 0.062500 0.500000
vt 0.062500 1.000000
vt 0.000000 0.500000
vt 0.000000 0.000000
vt 0.062500 0.000000
vt 0.062500 0.500000
vt 0.062500 0.500000
vt 0.062500 1.000000
vt 0.187500 1.000000
vt 0.187500 0.500000
vt 0.062500 0.000000
vt 0.187500 0.500000
vt 0.187500 0.000000
vt 0.062500 0.468750
vt 0.187500 0.468750
vt 0.187500 0.656250
vt 0.062500 0.656250
vt 0.000000 0.656250
vt 0.062500 0.656250
vt 0.062500 0.468750
vt 0.000000 0.468750
vt 0.000000 0.468750
vt 0.000000 0.656250
vt 0.062500 0.656250
vt 0.187500 0.656250
vt 0.187500 0.468750
vt 0.062500 0.468750
vt 0.062500 0.468750
vt 0.187500 0.468750
vt 0.187500 0.656250
vt 0.062500 0.656250
vt 0.062500 0.656250
vt 0.000000 0.656250
vt 0.000000 0.468750
vt 0.062500 0.468750
vt 0.062500 0.468750
vt 0.000000 0.468750
vt 0.000000 0.656250
vt 0.062500 0.656250
vt 0.187500 0.656250
vt 0.187500 0.468750
vt 0.156250 -0.000000
vt 0.156250 0.250000
vt 0.093750 0.250000
vt 0.093750 -0.000000
vt 0.156250 0.250000
vt 0.156250 0.500000
vt 0.093750 0.500000
vt 0.093750 0.250000
vt 0.156250 -0.000000
vt 0.156250 0.250000
vt 0.093750 0.250000
vt 0.093750 -0.000000
vt 0.156250 0.500000
vt 0.093750 0.500000
vt 0.093750 0.250000
vt 0.156250 0.250000
vt 0.437500 0.250000
vt 0.437500 0.187500
vt 0.343750 0.187500
vt 0.343750 0.250000
vt 0.437500 0.250000
vt 0.437500 0.187500
vt 0.343750 0.187500
vt 0.343750 0.250000
vt 0.437500 0.687500
vt 0.437500 0.750000
vt 0.500000 0.750000
vt 0.500000 0.687500
vt 0.500000 0.750000
vt 0.500000 0.687500
vt 0.437500 0.687500
vt 0.437500 0.750000
vt 0.437500 0.250000
vt 0.500000 0.250000
vt 0.500000 0.250000
vt 0.437500 0.750000
vt 0.437500 0.687500
vt 0.343750 0.687500
vt 0.343750 0.750000
vt 0.343750 0.687500
vt 0.343750 0.750000
vn -1.0000 0.0000 -0.0000
vn 1.0000 0.0000 0.0000
vn 0.0000 1.0000 0.0000
vn 0.0000 -1.0000 -0.0000
vn 0.0000 -0.0000 1.0000
vn 0.0000 0.0000 -1.0000
vn 0.0000 -0.7986 -0.6018
vn 0.0000 0.7986 0.6018
usemtl post
f 1/1/1 4/2/1 3/3/1 2/4/1
f 5/5/2 8/6/2 7/7/2 6/8/2
f 2/9/3 5/10/3 6/11/3 1/12/3
f 4/13/4 7/14/4 8/15/4 3/3/4
f 9/16/1 10/17/1 11/18/1 12/19/1
f 13/20/2 14/21/2 15/22/2 16/23/2
f 10/24/4 9/25/4 14/26/4 13/27/4
f 12/28/3 11/18/3 16/29/3 15/30/3
f 19/31/3 20/32/3 21/33/3 23/34/3
f 22/35/1 21/36/1 20/37/1 18/38/1
f 17/39/2 19/31/2 23/34/2 24/40/2
f 24/41/4 22/42/4 18/43/4 17/44/4
f 27/45/3 28/46/3 29/47/3 31/48/3
f 30/49/1 29/50/1 28/51/1 26/52/1
f 25/53/2 27/54/2 31/55/2 32/56/2
f 32/56/4 30/57/4 26/58/4 25/53/4
f 33/59/5 34/60/5 36/61/5 35/62/5
f 37/63/2 38/64/2 34/65/2 33/66/2
f 39/67/6 40/68/6 38/69/6 37/70/6
f 36/71/1 40/72/1 39/73/1 35/74/1
f 49/75/1 43/76/1 44/77/1 52/78/1
f 53/79/2 45/80/2 46/81/2 56/82/2
f 50/83/7 41/84/7 45/85/7 53/86/7
f 48/87/8 55/88/8 52/89/8 44/90/8
f 51/91/8 52/89/8 55/88/8 56/92/8
f 53/86/7 54/93/7 49/75/7 50/83/7
f 47/94/2 54/95/2 55/96/2 48/97/2
f 55/96/2 54/95/2 53/79/2 56/82/2
f 41/84/1 50/83/1 51/98/1 42/99/1
f 51/98/1 50/83/1 49/75/1 52/78/1
