# Blender v2.79 (sub 0) OBJ File: 'post_segments.blend'
# www.blender.org
mtllib post.mtl
o truss_panel
v 1.000000 0.000000 0.062500
v 1.000000 1.000000 0.062500
v 0.000000 0.000000 0.062500
v 0.000000 1.000000 0.062500
v 1.000000 0.000000 0.000000
v 1.000000 1.000000 0.000000
v 0.000000 0.000000 -0.000000
v 0.000000 1.000000 -0.000000
v 0.875000 0.750000 0.375000
v 0.875000 0.875000 0.375000
v 0.750000 0.750000 0.375000
v 0.750000 0.875000 0.375000
v 0.875000 0.750000 0.062500
v 0.875000 0.875000 0.062500
v 0.750000 0.750000 0.062500
v 0.750000 0.875000 0.062500
v 0.250000 0.750000 0.375000
v 0.250000 0.875000 0.375000
v 0.125000 0.750000 0.375000
v 0.125000 0.875000 0.375000
v 0.250000 0.750000 0.062500
v 0.250000 0.875000 0.062500
v 0.125000 0.750000 0.062500
v 0.125000 0.875000 0.062500
v 0.875000 0.125000 0.375000
v 0.875000 0.250000 0.375000
v 0.750000 0.125000 0.375000
v 0.750000 0.250000 0.375000
v 0.875000 0.125000 0.062500
v 0.875000 0.250000 0.062500
v 0.750000 0.125000 0.062500
v 0.750000 0.250000 0.062500
v 0.250000 0.125000 0.375000
v 0.250000 0.250000 0.375000
v 0.125000 0.125000 0.375000
v 0.125000 0.250000 0.375000
v 0.250000 0.125000 0.062500
v 0.250000 0.250000 0.062500
v 0.125000 0.125000 0.062500
v 0.125000 0.250000 0.062500
vt 0.500000 0.500000
vt 0.500000 1.000000
vt 1.000000 1.000000
vt 1.000000 0.500000
vt 0.968750 1.000000
vt 0.968750 0.500000
vt 1.000000 0.500000
vt 1.000000 1.000000
vt 0.500000 1.000000
vt 0.500000 0.500000
vt 0.531250 0.500000
vt 0.531250 1.000000
vt 1.000000 0.531250
vt 0.500000 0.531250
vt 1.000000 0.968750
vt 0.500000 0.968750
vt 0.062500 0.156250
vt 0.000000 0.156250
vt -0.000000 0.000000
vt 0.062500 0.000000
vt 0.000000 -0.000000
vt 0.062500 0.000000
vt 0.062500 0.156250
vt 0.000000 0.156250
vt -0.000000 0.312500
vt -0.000000 0.156250
vt 0.062500 0.156250
vt 0.062500 0.312500
vt 0.062500 0.156250
vt 0.062500 0.312500
vt -0.000000 0.312500
vt -0.000000 0.156250
vt 0.062500 0.156250
vt 0.000000 0.156250
vt -0.000000 0.000000
vt 0.062500 0.000000
vt 0.000000 -0.000000
vt 0.062500 0.000000
vt 0.062500 0.156250
vt 0.000000 0.156250
vt -0.000000 0.312500
vt -0.000000 0.156250
vt 0.062500 0.156250
vt 0.062500 0.312500
vt 0.062500 0.156250
vt 0.062500 0.312500
vt -0.000000 0.312500
vt -0.000000 0.156250
vt 0.062500 0.156250
vt 0.000000 0.156250
vt -0.000000 0.000000
vt 0.062500 0.000000
vt 0.000000 -0.000000
vt 0.062500 0.000000
vt 0.062500 0.156250
vt 0.000000 0.156250
vt -0.000000 0.312500
vt -0.000000 0.156250
vt 0.062500 0.156250
vt 0.062500 0.312500
vt 0.062500 0.156250
vt 0.062500 0.312500
vt -0.000000 0.312500
vt -0.000000 0.156250
vt 0.062500 0.156250
vt 0.000000 0.156250
vt -0.000000 0.000000
vt 0.062500 0.000000
vt 0.000000 -0.000000
vt 0.062500 0.000000
vt 0.062500 0.156250
vt 0.000000 0.156250
vt -0.000000 0.312500
vt -0.000000 0.156250
vt 0.062500 0.156250
vt 0.062500 0.312500
vt 0.062500 0.156250
vt 0.062500 0.312500
vt -0.000000 0.312500
vt -0.000000 0.156250
vn -0.0000 0.0000 1.0000
vn -1.0000 0.0000 0.0000
vn 0.0000 0.0000 -1.0000
vn 1.0000 0.0000 0.0000
vn 0.0000 -1.0000 0.0000
vn 0.0000 1.0000 0.0000
usemtl post
f 1/1/1 2/2/1 4/3/1 3/4/1
f 3/4/2 4/3/2 8/5/2 7/6/2
f 7/7/3 8/8/3 6/9/3 5/10/3
f 5/11/4 6/12/4 2/2/4 1/1/4
f 3/4/5 7/13/5 5/14/5 1/1/5
f 8/15/6 4/3/6 2/2/6 6/16/6
f 11/17/2 12/18/2 16/19/2 15/20/2
f 13/21/4 14/22/4 10/23/4 9/24/4
f 11/25/5 15/26/5 13/27/5 9/28/5
f 16/29/6 12/30/6 10/31/6 14/32/6
f 19/33/2 20/34/2 24/35/2 23/36/2
f 21/37/4 22/38/4 18/39/4 17/40/4
f 19/41/5 23/42/5 21/43/5 17/44/5
f 24/45/6 20/46/6 18/47/6 22/48/6
f 27/49/2 28/50/2 32/51/2 31/52/2
f 29/53/4 30/54/4 26/55/4 25/56/4
f 27/57/5 31/58/5 29/59/5 25/60/5
f 32/61/6 28/62/6 26/63/6 30/64/6
f 35/65/2 36/66/2 40/67/2 39/68/2
f 37/69/4 38/70/4 34/71/4 33/72/4
f 35/73/5 39/74/5 37/75/5 33/76/5
f 40/77/6 36/78/6 34/79/6 38/80/6
