# Blender v2.79 (sub 0) OBJ File: 'post_segments.blend'
# www.blender.org
mtllib post.mtl
o truss_multi_c
v 0.375000 0.125000 1.000000
v 0.625000 0.125000 1.000000
v 0.375000 0.250000 1.000000
v 0.625000 0.250000 1.000000
v 0.625000 0.250000 -0.000003
v 0.625000 0.125000 -0.000003
v 0.375000 0.250000 -0.000003
v 0.375000 0.125000 -0.000003
v 0.375000 0.750000 1.000000
v 0.625000 0.750000 1.000000
v 0.375000 0.875000 1.000000
v 0.625000 0.875000 1.000000
v 0.625000 0.875000 -0.000003
v 0.625000 0.750000 -0.000003
v 0.375000 0.875000 -0.000003
v 0.375000 0.750000 -0.000003
v 0.437500 0.763649 -0.005653
v 0.437500 0.838521 0.050768
v 0.437500 0.161479 0.949232
v 0.437500 0.236351 1.005653
v 0.562500 0.763649 -0.005653
v 0.562500 0.838521 0.050768
v 0.562500 0.161479 0.949232
v 0.562500 0.236351 1.005653
v 0.437500 0.161834 0.792983
v 0.437500 0.688422 0.094177
v 0.437500 0.838166 0.207017
v 0.437500 0.311578 0.905823
v 0.562500 0.688422 0.094177
v 0.562500 0.161834 0.792983
v 0.562500 0.311578 0.905823
v 0.562500 0.838166 0.207017
v 0.562500 0.250000 0.062500
v 0.562500 0.750000 0.062500
v 0.437500 0.250000 0.062500
v 0.437500 0.750000 0.062500
v 0.562500 0.250000 -0.062500
v 0.562500 0.750000 -0.062500
v 0.437500 0.250000 -0.062500
v 0.437500 0.750000 -0.062500
vt 0.062500 0.000000
vt 0.187500 0.000000
vt 0.187500 0.500000
vt 0.062500 0.500000
vt 0.000000 0.500000
vt 0.062500 0.500000
vt 0.062500 0.000000
vt 0.000000 0.000000
vt 0.000000 0.000000
vt 0.000000 0.500000
vt 0.062500 0.500000
vt 0.187500 0.500000
vt 0.187500 0.000000
vt 0.062500 0.000000
vt 0.062500 0.000000
vt 0.187500 0.000000
vt 0.187500 0.500000
vt 0.062500 0.500000
vt 0.062500 0.500000
vt 0.000000 0.500000
vt 0.000000 0.000000
vt 0.062500 0.000000
vt 0.062500 0.000000
vt 0.000000 0.000000
vt 0.000000 0.500000
vt 0.062500 0.500000
vt 0.187500 0.500000
vt 0.187500 0.000000
vt 0.437500 0.250000
vt 0.437500 0.187500
vt 0.343750 0.187500
vt 0.343750 0.250000
vt 0.437500 0.250000
vt 0.437500 0.187500
vt 0.343750 0.187500
vt 0.343750 0.250000
vt 0.437500 0.687500
vt 0.437500 0.750000
vt 0.500000 0.750000
vt 0.500000 0.687500
vt 0.500000 0.750000
vt 0.500000 0.687500
vt 0.437500 0.687500
vt 0.437500 0.750000
vt 0.437500 0.250000
vt 0.500000 0.250000
vt 0.500000 0.250000
vt 0.437500 0.750000
vt 0.437500 0.687500
vt 0.343750 0.687500
vt 0.343750 0.750000
vt 0.343750 0.687500
vt 0.343750 0.750000
vt 0.156250 0.500000
vt 0.156250 0.250000
vt 0.093750 0.250000
vt 0.093750 0.500000
vt 0.156250 0.250000
vt 0.156250 0.000000
vt 0.093750 0.000000
vt 0.093750 0.250000
vt 0.156250 0.500000
vt 0.156250 0.250000
vt 0.093750 0.250000
vt 0.093750 0.500000
vt 0.156250 0.000000
vt 0.093750 0.000000
vt 0.093750 0.250000
vt 0.156250 0.250000
vn 0.0000 1.0000 0.0000
vn 1.0000 -0.0000 -0.0000
vn -1.0000 0.0000 0.0000
vn 0.0000 -1.0000 0.0000
vn 0.0000 -0.7986 -0.6018
vn 0.0000 0.7986 0.6018
vn 0.0000 -0.0000 1.0000
vn 0.0000 0.0000 -1.0000
usemtl post
f 3/1/1 4/2/1 5/3/1 7/4/1
f 6/5/2 5/6/2 4/7/2 2/8/2
f 1/9/3 3/1/3 7/4/3 8/10/3
f 8/11/4 6/12/4 2/13/4 1/14/4
f 11/15/1 12/16/1 13/17/1 15/18/1
f 14/19/2 13/20/2 12/21/2 10/22/2
f 9/23/3 11/24/3 15/25/3 16/26/3
f 16/26/4 14/27/4 10/28/4 9/23/4
f 25/29/3 19/30/3 20/31/3 28/32/3
f 29/33/2 21/34/2 22/35/2 32/36/2
f 26/37/5 17/38/5 21/39/5 29/40/5
f 24/41/6 31/42/6 28/43/6 20/44/6
f 27/45/6 28/43/6 31/42/6 32/46/6
f 29/40/5 30/47/5 25/29/5 26/37/5
f 23/48/2 30/49/2 31/50/2 24/51/2
f 31/50/2 30/49/2 29/33/2 32/36/2
f 17/38/3 26/37/3 27/52/3 18/53/3
f 27/52/3 26/37/3 25/29/3 28/32/3
f 33/54/7 34/55/7 36/56/7 35/57/7
f 37/58/2 38/59/2 34/60/2 33/61/2
f 39/62/8 40/63/8 38/64/8 37/65/8
f 36/66/3 40/67/3 39/68/3 35/69/3
